<svg width="35" height="34" viewBox="0 0 35 34" fill="none" xmlns="http://www.w3.org/2000/svg">
<path d="M17.0449 1.53181e-06C13.6746 -0.00142048 10.3795 0.987248 7.57657 2.84095C4.77363 4.69465 2.58875 7.3301 1.29831 10.4139C0.00786916 13.4977 -0.330142 16.8913 0.327028 20.1654C0.984198 23.4395 2.60702 26.447 4.99022 28.8074C7.37341 31.1679 10.4099 32.7752 13.7155 33.4261C17.0212 34.077 20.4475 33.7422 23.561 32.4641C26.6745 31.186 29.3354 29.0219 31.2069 26.2458C33.0785 23.4696 34.0767 20.206 34.0753 16.8678C34.0695 12.3959 32.2734 8.10886 29.0808 4.94677C25.8883 1.78468 21.5599 0.00570909 17.0449 1.53181e-06ZM17.0449 2.03477C19.538 2.03245 21.9918 2.65054 24.1808 3.83228L17.0013 10.9504L9.57505 4.0336C11.8396 2.714 14.4175 2.01427 17.0449 2.00603V2.03477ZM17.0449 31.7008C13.9329 31.7037 10.8974 30.7453 8.36115 28.9592C5.8249 27.173 3.9141 24.648 2.89484 21.7357C1.87557 18.8234 1.79857 15.6687 2.67454 12.711C3.55051 9.75335 5.33587 7.13981 7.78201 5.23434L15.4987 12.4244L17.0013 13.9127L26.0029 4.99708C28.5249 6.85788 30.3904 9.45881 31.3342 12.4301C32.278 15.4013 32.252 18.5917 31.2599 21.5474C30.2678 24.5032 28.3602 27.074 25.8082 28.8943C23.2562 30.7145 20.1897 31.6915 17.0449 31.6865V31.7008Z" fill="#0082FF"/>
</svg>
